<?xml version="1.0" encoding="UTF-8"?>
<!DOCTYPE svg PUBLIC "-//W3C//DTD SVG 1.1//EN" "http://www.w3.org/Graphics/SVG/1.1/DTD/svg11.dtd">
<svg xmlns="http://www.w3.org/2000/svg" version="1.1" width="785px" height="646px" style="shape-rendering:geometricPrecision; text-rendering:geometricPrecision; image-rendering:optimizeQuality; fill-rule:evenodd; clip-rule:evenodd" xmlns:xlink="http://www.w3.org/1999/xlink">
<g><path style="opacity:1" fill="#1a99ab" d="M -0.5,-0.5 C 260.833,-0.5 522.167,-0.5 783.5,-0.5C 783.5,98.8333 783.5,198.167 783.5,297.5C 737.5,297.5 691.5,297.5 645.5,297.5C 637.833,297.5 630.167,297.5 622.5,297.5C 613.833,297.5 605.167,297.5 596.5,297.5C 588.5,297.5 580.5,297.5 572.5,297.5C 564.5,297.5 556.5,297.5 548.5,297.5C 541.833,297.5 535.167,297.5 528.5,297.5C 519.5,297.5 510.5,297.5 501.5,297.5C 491.5,297.5 481.5,297.5 471.5,297.5C 465.833,297.5 460.167,297.5 454.5,297.5C 413.5,297.5 372.5,297.5 331.5,297.5C 325.833,297.5 320.167,297.5 314.5,297.5C 304.833,297.5 295.167,297.5 285.5,297.5C 276.5,297.5 267.5,297.5 258.5,297.5C 251.5,297.5 244.5,297.5 237.5,297.5C 229.5,297.5 221.5,297.5 213.5,297.5C 205.5,297.5 197.5,297.5 189.5,297.5C 176.833,297.5 164.167,297.5 151.5,297.5C 143.167,297.5 134.833,297.5 126.5,297.5C 84.5,297.5 42.5,297.5 0.5,297.5C 0.5,314.5 0.5,331.5 0.5,348.5C 40.1667,348.5 79.8333,348.5 119.5,348.5C 127.833,348.5 136.167,348.5 144.5,348.5C 153.167,348.5 161.833,348.5 170.5,348.5C 174.833,348.5 179.167,348.5 183.5,348.5C 190.833,348.5 198.167,348.5 205.5,348.5C 213.5,348.5 221.5,348.5 229.5,348.5C 237.5,348.5 245.5,348.5 253.5,348.5C 261.167,348.5 268.833,348.5 276.5,348.5C 287.167,348.5 297.833,348.5 308.5,348.5C 314.5,348.5 320.5,348.5 326.5,348.5C 370.833,348.5 415.167,348.5 459.5,348.5C 466.833,348.5 474.167,348.5 481.5,348.5C 488.5,348.5 495.5,348.5 502.5,348.5C 506.833,348.5 511.167,348.5 515.5,348.5C 521.833,348.5 528.167,348.5 534.5,348.5C 542.833,348.5 551.167,348.5 559.5,348.5C 567.5,348.5 575.5,348.5 583.5,348.5C 590.833,348.5 598.167,348.5 605.5,348.5C 614.833,348.5 624.167,348.5 633.5,348.5C 641.167,348.5 648.833,348.5 656.5,348.5C 698.833,348.5 741.167,348.5 783.5,348.5C 783.5,447.5 783.5,546.5 783.5,645.5C 522.167,645.5 260.833,645.5 -0.5,645.5C -0.5,430.167 -0.5,214.833 -0.5,-0.5 Z"/></g>
<g><path style="opacity:1" fill="#b4d1da" d="M 359.5,106.5 C 366.677,105.181 374.01,105.181 381.5,106.5C 381.376,107.107 381.043,107.44 380.5,107.5C 373.687,106.509 366.687,106.175 359.5,106.5 Z"/></g>
<g><path style="opacity:1" fill="#fdfefe" d="M 359.5,106.5 C 366.687,106.175 373.687,106.509 380.5,107.5C 364.24,142.355 348.24,177.355 332.5,212.5C 346.15,213.499 359.817,213.833 373.5,213.5C 374.496,198.676 374.829,183.676 374.5,168.5C 381.167,168.5 387.833,168.5 394.5,168.5C 394.171,183.676 394.504,198.676 395.5,213.5C 398.625,214.479 401.958,214.813 405.5,214.5C 405.5,220.833 405.5,227.167 405.5,233.5C 401.833,233.5 398.167,233.5 394.5,233.5C 394.5,241.167 394.5,248.833 394.5,256.5C 387.833,256.5 381.167,256.5 374.5,256.5C 374.825,248.648 374.492,240.982 373.5,233.5C 352.34,232.503 331.007,232.169 309.5,232.5C 309.5,226.5 309.5,220.5 309.5,214.5C 325.622,178.256 342.289,142.256 359.5,106.5 Z"/></g>
<g><path style="opacity:1" fill="#fdfefe" d="M 441.5,256.5 C 441.667,213.832 441.5,171.165 441,128.5C 440.283,129.044 439.783,129.711 439.5,130.5C 433.527,133.821 427.527,137.155 421.5,140.5C 420.509,133.687 420.175,126.687 420.5,119.5C 427.285,115.221 433.952,110.721 440.5,106C 447.826,105.5 455.159,105.334 462.5,105.5C 462.5,155.833 462.5,206.167 462.5,256.5C 455.5,256.5 448.5,256.5 441.5,256.5 Z"/></g>
<g><path style="opacity:1" fill="#b8d3dc" d="M 420.5,119.5 C 420.175,126.687 420.509,133.687 421.5,140.5C 421.44,141.043 421.107,141.376 420.5,141.5C 419.181,134.01 419.181,126.677 420.5,119.5 Z"/></g>
<g><path style="opacity:1" fill="#9ec5d0" d="M 394.5,168.5 C 387.833,168.5 381.167,168.5 374.5,168.5C 374.829,183.676 374.496,198.676 373.5,213.5C 373.5,198.167 373.5,182.833 373.5,167.5C 380.687,167.175 387.687,167.509 394.5,168.5 Z"/></g>
<g><path style="opacity:1" fill="#60a9ba" d="M 441.5,256.5 C 440.833,214.5 440.167,172.5 439.5,130.5C 439.783,129.711 440.283,129.044 441,128.5C 441.5,171.165 441.667,213.832 441.5,256.5 Z"/></g>
<g><path style="opacity:1" fill="#9bc3cf" d="M 395.5,213.5 C 399.167,213.5 402.833,213.5 406.5,213.5C 406.824,220.354 406.491,227.021 405.5,233.5C 405.5,227.167 405.5,220.833 405.5,214.5C 401.958,214.813 398.625,214.479 395.5,213.5 Z"/></g>
<g><path style="opacity:1" fill="#d4e5ea" d="M 309.5,214.5 C 309.5,220.5 309.5,226.5 309.5,232.5C 331.007,232.169 352.34,232.503 373.5,233.5C 351.833,233.5 330.167,233.5 308.5,233.5C 308.177,226.978 308.51,220.645 309.5,214.5 Z"/></g>
<g><path style="opacity:1" fill="#86b8c6" d="M 126.5,297.5 C 124.212,298.074 122.045,299.074 120,300.5C 120.794,302.486 120.294,304.319 118.5,306C 118.471,319.818 118.805,333.985 119.5,348.5C 79.8333,348.5 40.1667,348.5 0.5,348.5C 0.5,331.5 0.5,314.5 0.5,297.5C 42.5,297.5 84.5,297.5 126.5,297.5 Z"/></g>
<g><path style="opacity:1" fill="#9dc4d0" d="M 151.5,297.5 C 164.167,297.5 176.833,297.5 189.5,297.5C 187.052,298.473 184.385,298.806 181.5,298.5C 178.482,298.335 175.482,298.502 172.5,299C 170.513,300.319 169.346,302.152 169,304.5C 168.685,311.896 168.518,319.062 168.5,326C 168.759,327.261 169.426,328.261 170.5,329C 167.92,331.12 167.92,333.287 170.5,335.5C 170.306,337.07 170.306,338.57 170.5,340C 169.672,340.915 168.672,341.581 167.5,342C 171.563,343.394 172.563,345.56 170.5,348.5C 161.833,348.5 153.167,348.5 144.5,348.5C 144.414,347.504 144.748,346.671 145.5,346C 144.313,344.981 143.313,343.814 142.5,342.5C 142.537,334.934 142.87,327.434 143.5,320C 142.773,317.876 142.106,315.709 141.5,313.5C 142.529,313.704 143.529,313.204 144.5,312C 140.827,304.18 143.16,299.347 151.5,297.5 Z"/></g>
<g><path style="opacity:1" fill="#b1cfd9" d="M 189.5,297.5 C 197.5,297.5 205.5,297.5 213.5,297.5C 211.369,298.314 209.036,298.814 206.5,299C 204.406,300.255 203.406,302.088 203.5,304.5C 204.059,314.555 204.059,323.722 203.5,332C 204.167,334 204.833,336 205.5,338C 205.077,341.243 205.077,344.743 205.5,348.5C 198.167,348.5 190.833,348.5 183.5,348.5C 183.722,345.61 183.055,342.943 181.5,340.5C 181.977,339.522 182.643,338.689 183.5,338C 180.833,336.333 180.833,334.667 183.5,333C 183.656,331.33 182.99,329.663 181.5,328C 181.903,326.527 182.57,325.194 183.5,324C 183.063,321.783 183.063,319.449 183.5,317C 181.043,315.488 181.043,314.154 183.5,313C 181.109,312.309 181.109,311.309 183.5,310C 181.604,308.192 181.104,306.025 182,303.5C 182.805,305.901 183.638,305.734 184.5,303C 183.614,301.385 182.614,299.885 181.5,298.5C 184.385,298.806 187.052,298.473 189.5,297.5 Z"/></g>
<g><path style="opacity:1" fill="#bdd6de" d="M 213.5,297.5 C 221.5,297.5 229.5,297.5 237.5,297.5C 231.043,297.794 227.71,301.294 227.5,308C 228.247,309.866 228.581,311.533 228.5,313C 225.833,313.667 225.833,314.333 228.5,315C 226.109,315.691 226.109,316.691 228.5,318C 227.521,319.779 227.854,321.445 229.5,323C 226.833,324.333 226.833,325.667 229.5,327C 226.833,328.667 226.833,330.333 229.5,332C 229.167,333.667 228.833,335.333 228.5,337C 229.167,337.667 229.833,338.333 230.5,339C 230.87,340.61 230.203,342.11 228.5,343.5C 228.977,344.478 229.643,345.311 230.5,346C 229.748,346.671 229.414,347.504 229.5,348.5C 221.5,348.5 213.5,348.5 205.5,348.5C 205.077,344.743 205.077,341.243 205.5,338C 204.833,336 204.167,334 203.5,332C 204.059,323.722 204.059,314.555 203.5,304.5C 203.406,302.088 204.406,300.255 206.5,299C 209.036,298.814 211.369,298.314 213.5,297.5 Z"/></g>
<g><path style="opacity:1" fill="#d6e5ea" d="M 258.5,297.5 C 267.5,297.5 276.5,297.5 285.5,297.5C 282.972,298.166 280.306,298.832 277.5,299.5C 276.634,301.432 275.967,303.432 275.5,305.5C 275.233,308.901 275.233,312.401 275.5,316C 275.05,317.285 274.383,318.452 273.5,319.5C 275.991,320.541 275.991,321.374 273.5,322C 275.756,323.499 275.756,325.166 273.5,327C 273.759,328.261 274.426,329.261 275.5,330C 274.903,331.889 274.569,333.722 274.5,335.5C 274.977,336.478 275.643,337.311 276.5,338C 275.445,341.868 275.445,345.368 276.5,348.5C 268.833,348.5 261.167,348.5 253.5,348.5C 252.859,347.518 252.193,346.518 251.5,345.5C 251.632,342.916 251.965,340.416 252.5,338C 251.833,337 251.167,336 250.5,335C 251.322,330.429 251.656,326.096 251.5,322C 249.109,320.691 249.109,319.691 251.5,319C 248.833,318.333 248.833,317.667 251.5,317C 250.692,316.692 250.025,316.192 249.5,315.5C 250.373,313.587 251.373,311.753 252.5,310C 251.939,308.324 250.939,306.991 249.5,306C 251.193,304.287 252.526,302.287 253.5,300C 253.167,299.667 252.833,299.333 252.5,299C 254.708,298.809 256.708,298.309 258.5,297.5 Z"/></g>
<g><path style="opacity:1" fill="#e5eff2" d="M 285.5,297.5 C 295.167,297.5 304.833,297.5 314.5,297.5C 312.052,298.473 309.385,298.806 306.5,298.5C 306.351,299.552 306.517,300.552 307,301.5C 307.423,300.044 308.256,299.544 309.5,300C 308.698,303.604 307.698,307.104 306.5,310.5C 306.659,316.341 306.659,322.175 306.5,328C 308.589,329.572 308.589,331.405 306.5,333.5C 306.977,334.478 307.643,335.311 308.5,336C 307.754,338.093 307.421,340.093 307.5,342C 308.167,342.667 308.833,343.333 309.5,344C 309.53,345.429 309.197,346.929 308.5,348.5C 297.833,348.5 287.167,348.5 276.5,348.5C 275.445,345.368 275.445,341.868 276.5,338C 275.643,337.311 274.977,336.478 274.5,335.5C 274.569,333.722 274.903,331.889 275.5,330C 274.426,329.261 273.759,328.261 273.5,327C 275.756,325.166 275.756,323.499 273.5,322C 275.991,321.374 275.991,320.541 273.5,319.5C 274.383,318.452 275.05,317.285 275.5,316C 275.233,312.401 275.233,308.901 275.5,305.5C 275.967,303.432 276.634,301.432 277.5,299.5C 280.306,298.832 282.972,298.166 285.5,297.5 Z"/></g>
<g><path style="opacity:1" fill="#f4f9fb" d="M 314.5,297.5 C 320.167,297.5 325.833,297.5 331.5,297.5C 329.027,300.804 326.027,303.638 322.5,306C 325.356,307.429 325.856,309.263 324,311.5C 323.667,310.833 323.333,310.167 323,309.5C 322.605,311.179 322.772,312.845 323.5,314.5C 323.061,316.104 322.394,317.604 321.5,319C 322.833,320.333 322.833,321.667 321.5,323C 323.159,325.93 323.492,328.93 322.5,332C 322.759,333.261 323.426,334.261 324.5,335C 321.833,336.667 321.833,338.333 324.5,340C 323.185,341.395 323.519,342.395 325.5,343C 323.122,343.974 323.456,344.641 326.5,345C 325.5,345.333 324.5,345.667 323.5,346C 324.942,346.377 325.942,347.21 326.5,348.5C 320.5,348.5 314.5,348.5 308.5,348.5C 309.197,346.929 309.53,345.429 309.5,344C 308.833,343.333 308.167,342.667 307.5,342C 307.421,340.093 307.754,338.093 308.5,336C 307.643,335.311 306.977,334.478 306.5,333.5C 308.589,331.405 308.589,329.572 306.5,328C 306.659,322.175 306.659,316.341 306.5,310.5C 307.698,307.104 308.698,303.604 309.5,300C 308.256,299.544 307.423,300.044 307,301.5C 306.517,300.552 306.351,299.552 306.5,298.5C 309.385,298.806 312.052,298.473 314.5,297.5 Z"/></g>
<g><path style="opacity:1" fill="#fefefe" d="M 331.5,297.5 C 372.5,297.5 413.5,297.5 454.5,297.5C 457.064,298.979 459.73,299.479 462.5,299C 461.833,300 461.167,301 460.5,302C 461.742,303.875 463.076,305.709 464.5,307.5C 464.023,308.478 463.357,309.311 462.5,310C 462.5,311.333 462.5,312.667 462.5,314C 464.384,315.989 464.717,317.989 463.5,320C 464.43,321.194 465.097,322.527 465.5,324C 464.305,325.533 464.305,327.033 465.5,328.5C 462.924,329.883 463.258,330.717 466.5,331C 465.376,331.249 464.376,331.749 463.5,332.5C 464.833,333.5 464.833,334.5 463.5,335.5C 465.679,337.1 465.346,338.6 462.5,340C 463.167,340.667 463.833,341.333 464.5,342C 462.946,344.287 461.279,346.454 459.5,348.5C 415.167,348.5 370.833,348.5 326.5,348.5C 325.942,347.21 324.942,346.377 323.5,346C 324.5,345.667 325.5,345.333 326.5,345C 323.456,344.641 323.122,343.974 325.5,343C 323.519,342.395 323.185,341.395 324.5,340C 321.833,338.333 321.833,336.667 324.5,335C 323.426,334.261 322.759,333.261 322.5,332C 323.492,328.93 323.159,325.93 321.5,323C 322.833,321.667 322.833,320.333 321.5,319C 322.394,317.604 323.061,316.104 323.5,314.5C 322.772,312.845 322.605,311.179 323,309.5C 323.333,310.167 323.667,310.833 324,311.5C 325.856,309.263 325.356,307.429 322.5,306C 326.027,303.638 329.027,300.804 331.5,297.5 Z"/></g>
<g><path style="opacity:1" fill="#d3e4e8" d="M 501.5,298.5 C 501.5,298.167 501.5,297.833 501.5,297.5C 510.5,297.5 519.5,297.5 528.5,297.5C 530.631,298.314 532.964,298.814 535.5,299C 534.892,301.184 535.559,303.184 537.5,305C 535.487,306.791 535.487,308.125 537.5,309C 534.967,310.916 534.967,312.916 537.5,315C 537.377,317.456 537.377,319.956 537.5,322.5C 535.009,323.541 535.009,324.374 537.5,325C 535.009,325.626 535.009,326.459 537.5,327.5C 537.224,330.557 537.224,333.557 537.5,336.5C 536.975,337.192 536.308,337.692 535.5,338C 537.441,339.816 538.108,341.816 537.5,344C 536.377,345.044 535.044,345.71 533.5,346C 535.167,346.333 536.833,346.667 538.5,347C 536.942,347.21 535.609,347.71 534.5,348.5C 528.167,348.5 521.833,348.5 515.5,348.5C 514.985,343.752 514.652,338.918 514.5,334C 514.903,332.527 515.57,331.194 516.5,330C 513.997,328.216 513.997,326.549 516.5,325C 514.043,323.846 514.043,322.512 516.5,321C 515.167,320 515.167,319 516.5,318C 514.109,316.691 514.109,315.691 516.5,315C 515.376,314.161 514.709,312.994 514.5,311.5C 514.565,308.696 514.898,306.196 515.5,304C 513.109,302.691 513.109,301.691 515.5,301C 513.581,299.066 512.081,299.233 511,301.5C 510.517,300.552 510.351,299.552 510.5,298.5C 507.5,298.5 504.5,298.5 501.5,298.5 Z"/></g>
<g><path style="opacity:1" fill="#88bbc8" d="M 783.5,-0.5 C 783.833,-0.5 784.167,-0.5 784.5,-0.5C 784.5,214.833 784.5,430.167 784.5,645.5C 784.167,645.5 783.833,645.5 783.5,645.5C 783.5,546.5 783.5,447.5 783.5,348.5C 741.167,348.5 698.833,348.5 656.5,348.5C 656.023,346.662 655.69,344.828 655.5,343C 657.891,341.691 657.891,340.691 655.5,340C 656.167,339.667 656.833,339.333 657.5,339C 655.428,336.033 655.428,333.367 657.5,331C 654.833,330.333 654.833,329.667 657.5,329C 656.692,328.692 656.025,328.192 655.5,327.5C 656.641,326.575 656.641,325.741 655.5,325C 657.131,322.843 657.631,320.343 657,317.5C 657.805,319.901 658.638,319.734 659.5,317C 658.315,315.647 656.981,314.48 655.5,313.5C 654.911,311.627 655.578,309.96 657.5,308.5C 656.359,307.575 656.359,306.741 657.5,306C 656.833,305.333 656.167,304.667 655.5,304C 656.138,302.293 656.138,300.46 655.5,298.5C 651.958,298.813 648.625,298.479 645.5,297.5C 691.5,297.5 737.5,297.5 783.5,297.5C 783.5,198.167 783.5,98.8333 783.5,-0.5 Z"/></g>
<g><path style="opacity:1" fill="#a6cad4" d="M 181.5,298.5 C 182.614,299.885 183.614,301.385 184.5,303C 183.638,305.734 182.805,305.901 182,303.5C 181.104,306.025 181.604,308.192 183.5,310C 181.109,311.309 181.109,312.309 183.5,313C 181.043,314.154 181.043,315.488 183.5,317C 183.063,319.449 183.063,321.783 183.5,324C 182.57,325.194 181.903,326.527 181.5,328C 182.99,329.663 183.656,331.33 183.5,333C 180.833,334.667 180.833,336.333 183.5,338C 182.643,338.689 181.977,339.522 181.5,340.5C 183.055,342.943 183.722,345.61 183.5,348.5C 179.167,348.5 174.833,348.5 170.5,348.5C 172.563,345.56 171.563,343.394 167.5,342C 168.672,341.581 169.672,340.915 170.5,340C 170.306,338.57 170.306,337.07 170.5,335.5C 167.92,333.287 167.92,331.12 170.5,329C 169.426,328.261 168.759,327.261 168.5,326C 168.518,319.062 168.685,311.896 169,304.5C 169.346,302.152 170.513,300.319 172.5,299C 175.482,298.502 178.482,298.335 181.5,298.5 Z"/></g>
<g><path style="opacity:1" fill="#c9dee4" d="M 237.5,297.5 C 244.5,297.5 251.5,297.5 258.5,297.5C 256.708,298.309 254.708,298.809 252.5,299C 252.833,299.333 253.167,299.667 253.5,300C 252.526,302.287 251.193,304.287 249.5,306C 250.939,306.991 251.939,308.324 252.5,310C 251.373,311.753 250.373,313.587 249.5,315.5C 250.025,316.192 250.692,316.692 251.5,317C 248.833,317.667 248.833,318.333 251.5,319C 249.109,319.691 249.109,320.691 251.5,322C 251.656,326.096 251.322,330.429 250.5,335C 251.167,336 251.833,337 252.5,338C 251.965,340.416 251.632,342.916 251.5,345.5C 252.193,346.518 252.859,347.518 253.5,348.5C 245.5,348.5 237.5,348.5 229.5,348.5C 229.414,347.504 229.748,346.671 230.5,346C 229.643,345.311 228.977,344.478 228.5,343.5C 230.203,342.11 230.87,340.61 230.5,339C 229.833,338.333 229.167,337.667 228.5,337C 228.833,335.333 229.167,333.667 229.5,332C 226.833,330.333 226.833,328.667 229.5,327C 226.833,325.667 226.833,324.333 229.5,323C 227.854,321.445 227.521,319.779 228.5,318C 226.109,316.691 226.109,315.691 228.5,315C 225.833,314.333 225.833,313.667 228.5,313C 228.581,311.533 228.247,309.866 227.5,308C 227.71,301.294 231.043,297.794 237.5,297.5 Z"/></g>
<g><path style="opacity:1" fill="#f3f8fa" d="M 454.5,297.5 C 460.167,297.5 465.833,297.5 471.5,297.5C 474.641,298.321 477.975,298.821 481.5,299C 480.207,299.49 478.873,299.657 477.5,299.5C 477.664,305.167 477.997,305.5 478.5,300.5C 479.552,300.351 480.552,300.517 481.5,301C 479.717,302.067 479.217,303.567 480,305.5C 480.333,304.5 480.667,303.5 481,302.5C 481.309,303.766 481.809,304.933 482.5,306C 481.6,309.132 481.266,312.466 481.5,316C 482.167,317.333 482.833,318.667 483.5,320C 482.546,321.908 481.879,323.908 481.5,326C 481.755,327.326 482.422,328.326 483.5,329C 480.833,329.667 480.833,330.333 483.5,331C 480.833,332.333 480.833,333.667 483.5,335C 482.692,335.308 482.025,335.808 481.5,336.5C 482.404,340.38 482.404,344.38 481.5,348.5C 474.167,348.5 466.833,348.5 459.5,348.5C 461.279,346.454 462.946,344.287 464.5,342C 463.833,341.333 463.167,340.667 462.5,340C 465.346,338.6 465.679,337.1 463.5,335.5C 464.833,334.5 464.833,333.5 463.5,332.5C 464.376,331.749 465.376,331.249 466.5,331C 463.258,330.717 462.924,329.883 465.5,328.5C 464.305,327.033 464.305,325.533 465.5,324C 465.097,322.527 464.43,321.194 463.5,320C 464.717,317.989 464.384,315.989 462.5,314C 462.5,312.667 462.5,311.333 462.5,310C 463.357,309.311 464.023,308.478 464.5,307.5C 463.076,305.709 461.742,303.875 460.5,302C 461.167,301 461.833,300 462.5,299C 459.73,299.479 457.064,298.979 454.5,297.5 Z"/></g>
<g><path style="opacity:1" fill="#e7f1f4" d="M 471.5,297.5 C 481.5,297.5 491.5,297.5 501.5,297.5C 501.5,297.833 501.5,298.167 501.5,298.5C 500.047,299.825 500.381,300.658 502.5,301C 501.692,301.308 501.025,301.808 500.5,302.5C 501.932,304.816 502.932,307.316 503.5,310C 502.705,313.203 502.372,316.536 502.5,320C 504.589,321.572 504.589,323.405 502.5,325.5C 503.019,333.055 503.019,340.721 502.5,348.5C 495.5,348.5 488.5,348.5 481.5,348.5C 482.404,344.38 482.404,340.38 481.5,336.5C 482.025,335.808 482.692,335.308 483.5,335C 480.833,333.667 480.833,332.333 483.5,331C 480.833,330.333 480.833,329.667 483.5,329C 482.422,328.326 481.755,327.326 481.5,326C 481.879,323.908 482.546,321.908 483.5,320C 482.833,318.667 482.167,317.333 481.5,316C 481.266,312.466 481.6,309.132 482.5,306C 481.809,304.933 481.309,303.766 481,302.5C 480.667,303.5 480.333,304.5 480,305.5C 479.217,303.567 479.717,302.067 481.5,301C 480.552,300.517 479.552,300.351 478.5,300.5C 477.997,305.5 477.664,305.167 477.5,299.5C 478.873,299.657 480.207,299.49 481.5,299C 477.975,298.821 474.641,298.321 471.5,297.5 Z"/></g>
<g><path style="opacity:1" fill="#deeaee" d="M 501.5,298.5 C 504.5,298.5 507.5,298.5 510.5,298.5C 510.351,299.552 510.517,300.552 511,301.5C 512.081,299.233 513.581,299.066 515.5,301C 513.109,301.691 513.109,302.691 515.5,304C 514.898,306.196 514.565,308.696 514.5,311.5C 514.709,312.994 515.376,314.161 516.5,315C 514.109,315.691 514.109,316.691 516.5,318C 515.167,319 515.167,320 516.5,321C 514.043,322.512 514.043,323.846 516.5,325C 513.997,326.549 513.997,328.216 516.5,330C 515.57,331.194 514.903,332.527 514.5,334C 514.652,338.918 514.985,343.752 515.5,348.5C 511.167,348.5 506.833,348.5 502.5,348.5C 503.019,340.721 503.019,333.055 502.5,325.5C 504.589,323.405 504.589,321.572 502.5,320C 502.372,316.536 502.705,313.203 503.5,310C 502.932,307.316 501.932,304.816 500.5,302.5C 501.025,301.808 501.692,301.308 502.5,301C 500.381,300.658 500.047,299.825 501.5,298.5 Z"/></g>
<g><path style="opacity:1" fill="#c7dce3" d="M 528.5,297.5 C 535.167,297.5 541.833,297.5 548.5,297.5C 551.782,297.981 554.949,298.981 558,300.5C 558.805,298.099 559.638,298.266 560.5,301C 558.398,302.733 558.065,304.733 559.5,307C 556.833,307.667 556.833,308.333 559.5,309C 558.273,310.587 558.606,311.921 560.5,313C 560.08,315.823 559.747,318.656 559.5,321.5C 559.529,323.029 560.196,324.196 561.5,325C 560.99,327.41 560.99,330.076 561.5,333C 558.833,334.333 558.833,335.667 561.5,337C 558.713,339.588 558.38,342.255 560.5,345C 559.663,346.011 559.33,347.178 559.5,348.5C 551.167,348.5 542.833,348.5 534.5,348.5C 535.609,347.71 536.942,347.21 538.5,347C 536.833,346.667 535.167,346.333 533.5,346C 535.044,345.71 536.377,345.044 537.5,344C 538.108,341.816 537.441,339.816 535.5,338C 536.308,337.692 536.975,337.192 537.5,336.5C 537.224,333.557 537.224,330.557 537.5,327.5C 535.009,326.459 535.009,325.626 537.5,325C 535.009,324.374 535.009,323.541 537.5,322.5C 537.377,319.956 537.377,317.456 537.5,315C 534.967,312.916 534.967,310.916 537.5,309C 535.487,308.125 535.487,306.791 537.5,305C 535.559,303.184 534.892,301.184 535.5,299C 532.964,298.814 530.631,298.314 528.5,297.5 Z"/></g>
<g><path style="opacity:1" fill="#bbd4dd" d="M 548.5,297.5 C 556.5,297.5 564.5,297.5 572.5,297.5C 575.689,298.166 579.023,298.833 582.5,299.5C 582.709,300.086 583.043,300.586 583.5,301C 584.669,307.497 584.669,313.997 583.5,320.5C 585.973,322.098 585.973,323.598 583.5,325C 583.923,328.125 584.257,331.292 584.5,334.5C 580.639,335.598 580.639,336.431 584.5,337C 580.639,337.569 580.639,338.402 584.5,339.5C 583.359,340.425 583.359,341.259 584.5,342C 583.672,342.915 582.672,343.581 581.5,344C 582.167,344.333 582.833,344.667 583.5,345C 582.316,346.145 582.316,347.312 583.5,348.5C 575.5,348.5 567.5,348.5 559.5,348.5C 559.33,347.178 559.663,346.011 560.5,345C 558.38,342.255 558.713,339.588 561.5,337C 558.833,335.667 558.833,334.333 561.5,333C 560.99,330.076 560.99,327.41 561.5,325C 560.196,324.196 559.529,323.029 559.5,321.5C 559.747,318.656 560.08,315.823 560.5,313C 558.606,311.921 558.273,310.587 559.5,309C 556.833,308.333 556.833,307.667 559.5,307C 558.065,304.733 558.398,302.733 560.5,301C 559.638,298.266 558.805,298.099 558,300.5C 554.949,298.981 551.782,297.981 548.5,297.5 Z"/></g>
<g><path style="opacity:1" fill="#b0ced8" d="M 572.5,297.5 C 580.5,297.5 588.5,297.5 596.5,297.5C 599.305,298.319 602.305,298.819 605.5,299C 604.833,300.333 603.833,301.333 602.5,302C 604.394,303.775 606.061,305.775 607.5,308C 604.626,311.051 604.959,313.718 608.5,316C 609.022,318.289 608.355,320.456 606.5,322.5C 606.977,323.478 607.643,324.311 608.5,325C 607.426,325.739 606.759,326.739 606.5,328C 607.472,331.098 607.305,334.265 606,337.5C 605.667,336.167 605.333,334.833 605,333.5C 604.347,336.457 605.181,338.957 607.5,341C 604.833,342.333 604.833,343.667 607.5,345C 606.177,345.816 605.511,346.983 605.5,348.5C 598.167,348.5 590.833,348.5 583.5,348.5C 582.316,347.312 582.316,346.145 583.5,345C 582.833,344.667 582.167,344.333 581.5,344C 582.672,343.581 583.672,342.915 584.5,342C 583.359,341.259 583.359,340.425 584.5,339.5C 580.639,338.402 580.639,337.569 584.5,337C 580.639,336.431 580.639,335.598 584.5,334.5C 584.257,331.292 583.923,328.125 583.5,325C 585.973,323.598 585.973,322.098 583.5,320.5C 584.669,313.997 584.669,307.497 583.5,301C 583.043,300.586 582.709,300.086 582.5,299.5C 579.023,298.833 575.689,298.166 572.5,297.5 Z"/></g>
<g><path style="opacity:1" fill="#a3c8d2" d="M 596.5,297.5 C 605.167,297.5 613.833,297.5 622.5,297.5C 624.698,298.165 627.031,298.832 629.5,299.5C 629.968,301.134 630.968,302.3 632.5,303C 631.366,304.016 631.699,304.683 633.5,305C 630.833,305.667 630.833,306.333 633.5,307C 632.572,307.388 631.905,308.055 631.5,309C 632.424,310.15 632.424,311.15 631.5,312C 632.167,312.333 632.833,312.667 633.5,313C 630.997,314.549 630.997,316.216 633.5,318C 632.62,325.559 632.62,333.226 633.5,341C 630.914,343.494 630.914,345.994 633.5,348.5C 624.167,348.5 614.833,348.5 605.5,348.5C 605.511,346.983 606.177,345.816 607.5,345C 604.833,343.667 604.833,342.333 607.5,341C 605.181,338.957 604.347,336.457 605,333.5C 605.333,334.833 605.667,336.167 606,337.5C 607.305,334.265 607.472,331.098 606.5,328C 606.759,326.739 607.426,325.739 608.5,325C 607.643,324.311 606.977,323.478 606.5,322.5C 608.355,320.456 609.022,318.289 608.5,316C 604.959,313.718 604.626,311.051 607.5,308C 606.061,305.775 604.394,303.775 602.5,302C 603.833,301.333 604.833,300.333 605.5,299C 602.305,298.819 599.305,298.319 596.5,297.5 Z"/></g>
<g><path style="opacity:1" fill="#93bfcc" d="M 622.5,297.5 C 630.167,297.5 637.833,297.5 645.5,297.5C 648.625,298.479 651.958,298.813 655.5,298.5C 656.138,300.46 656.138,302.293 655.5,304C 656.167,304.667 656.833,305.333 657.5,306C 656.359,306.741 656.359,307.575 657.5,308.5C 655.578,309.96 654.911,311.627 655.5,313.5C 656.981,314.48 658.315,315.647 659.5,317C 658.638,319.734 657.805,319.901 657,317.5C 657.631,320.343 657.131,322.843 655.5,325C 656.641,325.741 656.641,326.575 655.5,327.5C 656.025,328.192 656.692,328.692 657.5,329C 654.833,329.667 654.833,330.333 657.5,331C 655.428,333.367 655.428,336.033 657.5,339C 656.833,339.333 656.167,339.667 655.5,340C 657.891,340.691 657.891,341.691 655.5,343C 655.69,344.828 656.023,346.662 656.5,348.5C 648.833,348.5 641.167,348.5 633.5,348.5C 630.914,345.994 630.914,343.494 633.5,341C 632.62,333.226 632.62,325.559 633.5,318C 630.997,316.216 630.997,314.549 633.5,313C 632.833,312.667 632.167,312.333 631.5,312C 632.424,311.15 632.424,310.15 631.5,309C 631.905,308.055 632.572,307.388 633.5,307C 630.833,306.333 630.833,305.667 633.5,305C 631.699,304.683 631.366,304.016 632.5,303C 630.968,302.3 629.968,301.134 629.5,299.5C 627.031,298.832 624.698,298.165 622.5,297.5 Z"/></g>
<g><path style="opacity:1" fill="#8dbcc9" d="M 126.5,297.5 C 134.833,297.5 143.167,297.5 151.5,297.5C 143.16,299.347 140.827,304.18 144.5,312C 143.529,313.204 142.529,313.704 141.5,313.5C 142.106,315.709 142.773,317.876 143.5,320C 142.87,327.434 142.537,334.934 142.5,342.5C 143.313,343.814 144.313,344.981 145.5,346C 144.748,346.671 144.414,347.504 144.5,348.5C 136.167,348.5 127.833,348.5 119.5,348.5C 118.805,333.985 118.471,319.818 118.5,306C 120.294,304.319 120.794,302.486 120,300.5C 122.045,299.074 124.212,298.074 126.5,297.5 Z"/></g>
<g><path style="opacity:1" fill="#fcfdfd" d="M 121.5,421.5 C 135.892,421.07 150.226,421.57 164.5,423C 173.342,425.176 178.842,430.676 181,439.5C 183.938,454.225 178.771,464.892 165.5,471.5C 172.039,484.079 178.706,496.579 185.5,509C 180.467,509.829 175.467,509.662 170.5,508.5C 164.628,496.589 158.628,484.755 152.5,473C 146.175,472.5 139.842,472.334 133.5,472.5C 133.5,484.833 133.5,497.167 133.5,509.5C 129.5,509.5 125.5,509.5 121.5,509.5C 121.5,480.167 121.5,450.833 121.5,421.5 Z"/></g>
<g><path style="opacity:1" fill="#fafcfc" d="M 221.5,420.5 C 241.589,418.446 254.089,427.113 259,446.5C 259.667,458.5 259.667,470.5 259,482.5C 255.13,503.203 242.63,512.37 221.5,510C 208.59,506.756 200.757,498.589 198,485.5C 197.333,472.167 197.333,458.833 198,445.5C 200.914,432.422 208.748,424.089 221.5,420.5 Z"/></g>
<g><path style="opacity:1" fill="#fcfdfd" d="M 278.5,421.5 C 291.504,421.333 304.504,421.5 317.5,422C 334.054,424.91 340.887,434.744 338,451.5C 335.626,458.041 331.126,462.374 324.5,464.5C 340.073,472.098 343.907,483.764 336,499.5C 331.533,505.151 325.699,508.317 318.5,509C 305.171,509.5 291.837,509.667 278.5,509.5C 278.5,480.167 278.5,450.833 278.5,421.5 Z"/></g>
<g><path style="opacity:1" fill="#fafcfc" d="M 378.5,420.5 C 398.589,418.446 411.089,427.113 416,446.5C 416.667,458.5 416.667,470.5 416,482.5C 412.13,503.203 399.63,512.37 378.5,510C 365.59,506.756 357.757,498.589 355,485.5C 354.333,472.167 354.333,458.833 355,445.5C 357.914,432.422 365.748,424.089 378.5,420.5 Z"/></g>
<g><path style="opacity:1" fill="#e7f1f4" d="M 424.5,422.5 C 444.993,421.503 465.66,421.169 486.5,421.5C 486.5,425.5 486.5,429.5 486.5,433.5C 478.167,433.5 469.833,433.5 461.5,433.5C 469.316,432.508 477.316,432.174 485.5,432.5C 485.5,429.167 485.5,425.833 485.5,422.5C 465.167,422.5 444.833,422.5 424.5,422.5 Z"/></g>
<g><path style="opacity:1" fill="#fafcfc" d="M 554.5,420.5 C 573.824,419.143 586.157,427.643 591.5,446C 587.129,446.828 582.795,446.661 578.5,445.5C 572.215,433.016 562.882,429.85 550.5,436C 547.469,438.559 545.302,441.726 544,445.5C 543.333,458.5 543.333,471.5 544,484.5C 547.996,496.748 556.163,500.915 568.5,497C 573.081,494.252 576.415,490.419 578.5,485.5C 582.833,484.167 587.167,484.167 591.5,485.5C 585.605,503.958 572.938,512.125 553.5,510C 540.277,506.067 532.777,497.234 531,483.5C 530.333,471.167 530.333,458.833 531,446.5C 533.494,432.846 541.328,424.179 554.5,420.5 Z"/></g>
<g><path style="opacity:1" fill="#fafcfd" d="M 628.5,420.5 C 641.634,419.616 653.634,422.783 664.5,430C 662,433.167 659.5,436.333 657,439.5C 646.957,432.143 636.123,430.643 624.5,435C 617.821,440.442 616.821,446.776 621.5,454C 629.95,458.296 638.95,460.963 648.5,462C 663.388,466.927 668.888,477.094 665,492.5C 662.526,500.307 657.359,505.474 649.5,508C 632.218,513.308 616.552,510.475 602.5,499.5C 604.451,496.214 606.785,493.214 609.5,490.5C 620.37,498.501 632.37,500.668 645.5,497C 652.939,493.858 655.439,488.358 653,480.5C 649.531,475.509 644.697,472.676 638.5,472C 632.135,470.825 625.801,469.492 619.5,468C 609.794,463.917 605.461,456.584 606.5,446C 605.873,438.257 608.54,431.923 614.5,427C 618.892,423.967 623.559,421.8 628.5,420.5 Z"/></g>
<g><path style="opacity:1" fill="#fefefe" d="M 424.5,422.5 C 444.833,422.5 465.167,422.5 485.5,422.5C 485.5,425.833 485.5,429.167 485.5,432.5C 477.316,432.174 469.316,432.508 461.5,433.5C 461.5,458.833 461.5,484.167 461.5,509.5C 457.5,509.5 453.5,509.5 449.5,509.5C 449.5,484.167 449.5,458.833 449.5,433.5C 441.167,433.5 432.833,433.5 424.5,433.5C 424.5,429.833 424.5,426.167 424.5,422.5 Z"/></g>
<g><path style="opacity:1" fill="#fefefe" d="M 498.5,421.5 C 502.5,421.5 506.5,421.5 510.5,421.5C 510.5,450.833 510.5,480.167 510.5,509.5C 506.5,509.5 502.5,509.5 498.5,509.5C 498.5,480.167 498.5,450.833 498.5,421.5 Z"/></g>
<g><path style="opacity:1" fill="#2199ab" d="M 133.5,433.5 C 143.58,433.077 153.58,433.577 163.5,435C 169.126,441.541 169.96,448.708 166,456.5C 164.421,458.041 162.587,459.208 160.5,460C 151.506,460.5 142.506,460.666 133.5,460.5C 133.5,451.5 133.5,442.5 133.5,433.5 Z"/></g>
<g><path style="opacity:1" fill="#1f99ab" d="M 223.5,432.5 C 234.27,431.353 241.77,435.686 246,445.5C 246.928,459.556 246.595,473.556 245,487.5C 241.663,494.674 235.997,498.34 228,498.5C 219.481,497.989 213.814,493.656 211,485.5C 210.333,472.167 210.333,458.833 211,445.5C 213.327,439.341 217.494,435.007 223.5,432.5 Z"/></g>
<g><path style="opacity:1" fill="#279bac" d="M 290.5,432.5 C 299.9,432.114 309.234,432.614 318.5,434C 326.899,438.876 328.732,445.709 324,454.5C 323.097,455.701 321.931,456.535 320.5,457C 310.58,458.423 300.58,458.923 290.5,458.5C 290.5,449.833 290.5,441.167 290.5,432.5 Z"/></g>
<g><path style="opacity:1" fill="#1f99ab" d="M 380.5,432.5 C 391.27,431.353 398.77,435.686 403,445.5C 403.928,459.556 403.595,473.556 402,487.5C 398.663,494.674 392.997,498.34 385,498.5C 376.481,497.989 370.814,493.656 368,485.5C 367.333,472.167 367.333,458.833 368,445.5C 370.327,439.341 374.494,435.007 380.5,432.5 Z"/></g>
<g><path style="opacity:1" fill="#299bad" d="M 290.5,469.5 C 300.233,469.109 309.9,469.609 319.5,471C 327.957,476.234 329.79,483.401 325,492.5C 322.125,495.463 318.625,497.296 314.5,498C 306.507,498.5 298.507,498.666 290.5,498.5C 290.5,488.833 290.5,479.167 290.5,469.5 Z"/></g>
</svg>
