<?xml version="1.0" standalone="no"?>
<!DOCTYPE svg PUBLIC "-//W3C//DTD SVG 20010904//EN"
 "http://www.w3.org/TR/2001/REC-SVG-20010904/DTD/svg10.dtd">
<svg version="1.0" xmlns="http://www.w3.org/2000/svg"
 width="785.000000pt" height="646.000000pt" viewBox="0 0 785.000000 646.000000"
 preserveAspectRatio="xMidYMid meet">
<metadata>
Created by potrace 1.16, written by Peter Selinger 2001-2019
</metadata>
<g transform="translate(0.000000,646.000000) scale(0.100000,-0.100000)"
fill="#000000" stroke="none">
<path d="M0 3230 l0 -3230 3920 0 3920 0 0 1485 0 1485 -3915 0 -3915 0 0 255
0 255 3915 0 3915 0 0 1490 0 1490 -3920 0 -3920 0 0 -3230z m3820 2164 c0 -6
-64 -147 -338 -746 l-150 -328 204 0 204 0 0 230 0 230 110 0 110 0 0 -230 0
-230 55 0 55 0 0 -100 0 -100 -55 0 -55 0 0 -120 0 -120 -110 0 -110 0 0 120
0 120 -325 0 -325 0 0 93 0 94 253 546 252 546 113 1 c61 0 112 -3 112 -6z
m810 -749 l0 -755 -110 0 -110 0 0 630 c0 347 -2 630 -5 630 -3 0 -42 -23 -87
-51 -132 -82 -118 -87 -118 45 l0 116 103 69 102 70 113 0 112 1 0 -755z
m-2984 -2410 c51 -9 118 -60 147 -113 60 -110 42 -241 -44 -324 -27 -27 -56
-48 -64 -48 -8 0 -15 -4 -15 -9 0 -6 43 -91 95 -189 52 -98 95 -182 95 -186 0
-4 -35 -6 -77 -4 l-78 3 -92 180 -92 180 -85 3 -86 3 0 -186 0 -185 -70 0 -70
0 0 439 0 440 43 3 c59 4 355 -1 393 -7z m768 -5 c66 -25 124 -79 157 -146 23
-46 24 -60 27 -261 3 -172 0 -223 -12 -265 -22 -74 -72 -137 -137 -173 -50
-28 -61 -30 -159 -30 -98 0 -109 2 -159 30 -29 16 -69 50 -88 74 -57 75 -65
122 -61 364 3 201 4 215 27 261 32 66 91 121 154 145 71 27 179 28 251 1z
m1570 0 c66 -25 124 -79 157 -146 23 -46 24 -60 27 -261 3 -172 0 -223 -12
-265 -22 -74 -72 -137 -137 -173 -50 -28 -61 -30 -159 -30 -98 0 -109 2 -159
30 -29 16 -69 50 -88 74 -57 75 -65 122 -61 364 3 201 4 215 27 261 32 66 91
121 154 145 71 27 179 28 251 1z m1771 -7 c79 -42 165 -156 165 -220 0 -22 -4
-23 -64 -23 -57 0 -65 3 -71 21 -10 29 -63 87 -96 105 -33 17 -111 19 -142 3
-85 -44 -107 -107 -107 -309 0 -176 13 -233 65 -279 42 -37 70 -45 134 -39 61
6 101 34 132 93 l24 45 62 0 c59 0 63 -2 63 -22 -1 -65 -85 -178 -165 -221
-33 -18 -56 -22 -140 -22 -92 0 -104 2 -154 30 -63 35 -114 98 -136 169 -22
73 -21 427 1 493 31 91 94 157 181 189 57 21 197 14 248 -13z m746 11 c59 -17
149 -64 149 -77 0 -12 -62 -97 -71 -97 -4 0 -32 13 -62 29 -137 72 -302 36
-322 -71 -8 -43 8 -83 45 -110 14 -10 76 -29 137 -43 191 -41 258 -84 284
-177 16 -62 6 -158 -22 -210 -31 -55 -102 -103 -176 -119 -84 -17 -245 -7
-310 20 -55 21 -133 69 -133 80 0 3 19 28 41 54 37 43 43 47 58 33 9 -8 43
-28 76 -43 77 -35 206 -40 269 -9 74 37 98 119 51 175 -29 33 -77 51 -205 76
-103 21 -146 38 -183 73 -49 46 -61 80 -62 167 0 132 50 206 168 246 66 23
195 25 268 3z m-3214 -23 c55 -32 90 -83 104 -153 20 -98 -20 -199 -90 -228
-34 -13 -41 -30 -14 -30 9 0 35 -20 58 -44 69 -71 83 -182 36 -274 -25 -48
-55 -76 -111 -101 -41 -19 -65 -21 -267 -21 l-223 0 0 441 0 440 233 -3 c224
-3 233 -4 274 -27z m1583 -31 l0 -60 -125 0 -125 0 0 -380 0 -380 -65 0 -65 0
0 380 0 380 -125 0 -125 0 0 60 0 60 315 0 315 0 0 -60z m250 -380 l0 -440
-70 0 -70 0 0 440 0 440 70 0 70 0 0 -440z"/>
<path d="M1350 1985 l0 -137 129 4 c113 3 133 6 158 24 59 44 66 148 13 208
l-28 31 -136 3 -136 4 0 -137z"/>
<path d="M2215 2106 c-40 -17 -82 -67 -95 -114 -13 -48 -13 -336 0 -384 22
-77 87 -128 165 -128 86 0 153 49 175 128 5 20 10 107 10 192 0 171 -8 214
-47 261 -47 56 -138 76 -208 45z"/>
<path d="M3785 2106 c-40 -17 -82 -67 -95 -114 -5 -20 -10 -107 -10 -192 0
-170 8 -214 47 -260 35 -42 73 -60 128 -60 86 0 153 49 175 128 5 20 10 107
10 192 0 171 -8 214 -47 261 -47 56 -138 76 -208 45z"/>
<path d="M2920 1995 l0 -125 120 0 c131 0 176 11 204 51 20 30 21 101 0 140
-24 47 -66 59 -204 59 l-120 0 0 -125z"/>
<path d="M2920 1615 l0 -135 120 0 c134 0 173 11 208 55 27 34 30 111 6 156
-24 47 -66 59 -209 59 l-125 0 0 -135z"/>
</g>
</svg>
